<svg width="40" height="41" viewBox="0 0 40 41" fill="none" xmlns="http://www.w3.org/2000/svg">
<g clip-path="url(#clip0_1_2818)">
<path d="M20.4167 40.8334C31.2323 40.8334 40 32.0657 40 21.2501C40 10.4345 31.2323 1.66675 20.4167 1.66675C9.60113 1.66675 0.833374 10.4345 0.833374 21.2501C0.833374 32.0657 9.60113 40.8334 20.4167 40.8334Z" fill="#EFF9FF"/>
<path fill-rule="evenodd" clip-rule="evenodd" d="M11.1666 6.66659C11.1666 3.16879 14.0022 0.333252 17.5 0.333252C20.9978 0.333252 23.8333 3.16879 23.8333 6.66659C23.8333 10.1644 20.9978 12.9999 17.5 12.9999C14.0022 12.9999 11.1666 10.1644 11.1666 6.66659ZM17.5 1.33325C14.5544 1.33325 12.1666 3.72107 12.1666 6.66659C12.1666 9.61211 14.5544 11.9999 17.5 11.9999C20.4455 11.9999 22.8333 9.61211 22.8333 6.66659C22.8333 3.72107 20.4455 1.33325 17.5 1.33325Z" fill="#0962E8"/>
<path fill-rule="evenodd" clip-rule="evenodd" d="M15.8334 18.8333C7.76827 18.8333 1.33337 24.6326 1.33337 31.6666C1.33337 31.9427 1.10952 32.1666 0.833374 32.1666C0.557232 32.1666 0.333374 31.9427 0.333374 31.6666C0.333374 23.9729 7.32997 17.8333 15.8334 17.8333C16.1095 17.8333 16.3334 18.0571 16.3334 18.3333C16.3334 18.6094 16.1095 18.8333 15.8334 18.8333Z" fill="#0962E8"/>
<path fill-rule="evenodd" clip-rule="evenodd" d="M20.3334 24.5719C20.3334 22.3054 21.9246 20.3333 24.0417 20.3333C25.0825 20.3333 26.0052 20.8194 26.6667 21.5763C27.3282 20.8194 28.2509 20.3333 29.2917 20.3333C31.4088 20.3333 33 22.3054 33 24.5719C33 26.6062 31.9734 28.502 30.73 29.9652C29.488 31.4268 27.9648 32.5334 26.8473 32.9662C26.7311 33.0112 26.6023 33.0112 26.4862 32.9662C25.3686 32.5334 23.8454 31.4268 22.6034 29.9652C21.36 28.502 20.3334 26.6062 20.3334 24.5719ZM24.0417 21.3333C22.615 21.3333 21.3334 22.7087 21.3334 24.5719C21.3334 26.2762 22.2025 27.9491 23.3654 29.3176C24.4561 30.6012 25.7481 31.5495 26.6667 31.9584C27.5854 31.5495 28.8773 30.6012 29.968 29.3176C31.1309 27.9491 32 26.2762 32 24.5719C32 22.7087 30.7185 21.3333 29.2917 21.3333C28.4113 21.3333 27.6011 21.8422 27.0946 22.6804C27.0041 22.8302 26.8418 22.9218 26.6667 22.9218C26.4916 22.9218 26.3293 22.8302 26.2388 22.6804C25.7323 21.8422 24.9221 21.3333 24.0417 21.3333Z" fill="#0962E8"/>
</g>
<defs>
<clipPath id="clip0_1_2818">
<rect width="40" height="40.8333" fill="white"/>
</clipPath>
</defs>
</svg>
