<svg width="40" height="41" viewBox="0 0 40 41" fill="none" xmlns="http://www.w3.org/2000/svg">
<path d="M17.5 12.4999C20.7216 12.4999 23.3333 9.88825 23.3333 6.66659C23.3333 3.44493 20.7216 0.833252 17.5 0.833252C14.2783 0.833252 11.6666 3.44493 11.6666 6.66659C11.6666 9.88825 14.2783 12.4999 17.5 12.4999Z" stroke="#0962E8" stroke-linecap="round" stroke-linejoin="round"/>
<path d="M0.833374 31.6666C0.833374 24.3028 7.54912 18.3333 15.8334 18.3333" stroke="#0962E8" stroke-linecap="round" stroke-linejoin="round"/>
<path d="M24.0417 20.8333C22.2698 20.8333 20.8334 22.5071 20.8334 24.5719C20.8334 28.3105 24.625 31.7093 26.6667 32.4999C28.7084 31.7093 32.5 28.3105 32.5 24.5719C32.5 22.5071 31.0636 20.8333 29.2917 20.8333C28.2066 20.8333 27.2473 21.461 26.6667 22.4218C26.0861 21.461 25.1268 20.8333 24.0417 20.8333Z" stroke="#0962E8" stroke-linecap="round" stroke-linejoin="round"/>
</svg>
