<svg width="40" height="40" viewBox="0 0 40 40" fill="none" xmlns="http://www.w3.org/2000/svg">
<path fill-rule="evenodd" clip-rule="evenodd" d="M3.05054 1.60643C4.64164 0.81088 6.80473 0.333252 9.16671 0.333252C11.5287 0.333252 13.6918 0.81088 15.2829 1.60643C16.844 2.38702 18 3.55791 18 4.99992C18 6.44193 16.844 7.61282 15.2829 8.39341C13.6918 9.18896 11.5287 9.66659 9.16671 9.66659C6.80473 9.66659 4.64164 9.18896 3.05054 8.39341C1.48935 7.61281 0.333374 6.44192 0.333374 4.99992C0.333374 3.55791 1.48935 2.38702 3.05054 1.60643ZM3.49776 2.50085C2.04287 3.2283 1.33337 4.14074 1.33337 4.99992C1.33337 5.8591 2.04287 6.77154 3.49776 7.49898C4.92273 8.21147 6.92631 8.66659 9.16671 8.66659C11.4071 8.66659 13.4107 8.21147 14.8356 7.49898C16.2905 6.77154 17 5.85909 17 4.99992C17 4.14074 16.2905 3.2283 14.8356 2.50086C13.4107 1.78837 11.4071 1.33325 9.16671 1.33325C6.92631 1.33325 4.92273 1.78837 3.49776 2.50085Z" fill="#0962E8"/>
<path fill-rule="evenodd" clip-rule="evenodd" d="M0.833374 4.5C1.10952 4.5 1.33337 4.72386 1.33337 5H0.833374H0.333374C0.333374 4.72386 0.557232 4.5 0.833374 4.5ZM17.5 5L18 5.00005V10.8333C18 12.2753 16.844 13.4462 15.2829 14.2268C13.6918 15.0224 11.5287 15.5 9.16671 15.5C6.80473 15.5 4.64164 15.0224 3.05054 14.2268C1.48936 13.4462 0.333374 12.2753 0.333374 10.8333V5H0.833374H1.33337V10.8333C1.33337 11.6925 2.04287 12.6049 3.49776 13.3324C4.92273 14.0449 6.92631 14.5 9.16671 14.5C11.4071 14.5 13.4107 14.0449 14.8356 13.3324C16.2905 12.6049 17 11.6925 17 10.8333V5.00081L17.5 5ZM17.5 5L18 5.00005C18 4.72391 17.7762 4.5 17.5 4.5C17.2239 4.5 17 4.72467 17 5.00081L17.5 5Z" fill="#0962E8"/>
<path fill-rule="evenodd" clip-rule="evenodd" d="M0.833374 10.3333C1.10952 10.3333 1.33337 10.5571 1.33337 10.8333H0.833374H0.333374C0.333374 10.5571 0.557232 10.3333 0.833374 10.3333ZM17.5 10.8333L18 10.8333V16.6666C18 18.1086 16.844 19.2795 15.2829 20.0601C13.6918 20.8556 11.5287 21.3333 9.16671 21.3333C6.80473 21.3333 4.64164 20.8556 3.05054 20.0601C1.48936 19.2795 0.333374 18.1086 0.333374 16.6666V10.8333H0.833374H1.33337V16.6666C1.33337 17.5258 2.04287 18.4382 3.49776 19.1656C4.92273 19.8781 6.92631 20.3333 9.16671 20.3333C11.4071 20.3333 13.4107 19.8781 14.8356 19.1656C16.2905 18.4382 17 17.5258 17 16.6666V10.8341L17.5 10.8333ZM17.5 10.8333L18 10.8333C18 10.5572 17.7762 10.3333 17.5 10.3333C17.2239 10.3333 17 10.5579 17 10.8341L17.5 10.8333Z" fill="#0962E8"/>
<path fill-rule="evenodd" clip-rule="evenodd" d="M0.833374 16.1667C1.10952 16.1667 1.33337 16.3906 1.33337 16.6667H0.833374H0.333374C0.333374 16.3906 0.557232 16.1667 0.833374 16.1667ZM17.5 16.6667L18 16.6668V22.5001C18 23.9421 16.844 25.113 15.2829 25.8936C13.6918 26.6891 11.5287 27.1667 9.16671 27.1667C6.80473 27.1667 4.64164 26.6891 3.05054 25.8936C1.48936 25.113 0.333374 23.9421 0.333374 22.5001V16.6667H0.833374H1.33337V22.5001C1.33337 23.3593 2.04287 24.2717 3.49776 24.9991C4.92273 25.7116 6.92631 26.1667 9.16671 26.1667C11.4071 26.1667 13.4107 25.7116 14.8356 24.9991C16.2905 24.2717 17 23.3592 17 22.5001V16.6676L17.5 16.6667ZM17.5 16.6667L18 16.6668C18 16.3907 17.7762 16.1667 17.5 16.1667C17.2239 16.1667 17 16.3914 17 16.6676L17.5 16.6667Z" fill="#0962E8"/>
<path fill-rule="evenodd" clip-rule="evenodd" d="M0.833374 22C1.10952 22 1.33337 22.2239 1.33337 22.5H0.833374H0.333374C0.333374 22.2239 0.557232 22 0.833374 22ZM17.5 22.5L18 22.5001V28.3333C18 29.7753 16.844 30.9462 15.2829 31.7268C13.6918 32.5224 11.5287 33 9.16671 33C6.80473 33 4.64164 32.5224 3.05054 31.7268C1.48936 30.9462 0.333374 29.7753 0.333374 28.3333V22.5H0.833374H1.33337V28.3333C1.33337 29.1925 2.04287 30.1049 3.49776 30.8324C4.92273 31.5449 6.92631 32 9.16671 32C11.4071 32 13.4107 31.5449 14.8356 30.8324C16.2905 30.1049 17 29.1925 17 28.3333V22.5008L17.5 22.5ZM17.5 22.5L18 22.5001C18 22.2239 17.7762 22 17.5 22C17.2239 22 17 22.2247 17 22.5008L17.5 22.5Z" fill="#0962E8"/>
<path fill-rule="evenodd" clip-rule="evenodd" d="M19.7172 13.2732C21.3083 12.4776 23.4714 12 25.8333 12C28.1953 12 30.3584 12.4776 31.9495 13.2732C33.5107 14.0538 34.6667 15.2247 34.6667 16.6667C34.6667 18.1087 33.5107 19.2796 31.9495 20.0602C30.3584 20.8557 28.1953 21.3333 25.8333 21.3333C23.4714 21.3333 21.3083 20.8557 19.7172 20.0602C18.156 19.2796 17 18.1087 17 16.6667C17 15.2247 18.156 14.0538 19.7172 13.2732ZM20.1644 14.1676C18.7095 14.8951 18 15.8075 18 16.6667C18 17.5258 18.7095 18.4383 20.1644 19.1657C21.5894 19.8782 23.593 20.3333 25.8333 20.3333C28.0737 20.3333 30.0773 19.8782 31.5023 19.1657C32.9572 18.4383 33.6667 17.5258 33.6667 16.6667C33.6667 15.8075 32.9572 14.8951 31.5023 14.1676C30.0773 13.4551 28.0737 13 25.8333 13C23.593 13 21.5894 13.4551 20.1644 14.1676Z" fill="#0962E8"/>
<path fill-rule="evenodd" clip-rule="evenodd" d="M17.5 16.1667C17.7761 16.1667 18 16.3906 18 16.6667H17.5H17C17 16.3906 17.2239 16.1667 17.5 16.1667ZM34.1667 16.6667L34.6667 16.6668V22.5001C34.6667 23.9421 33.5107 25.113 31.9495 25.8936C30.3584 26.6891 28.1953 27.1667 25.8333 27.1667C23.4714 27.1667 21.3083 26.6891 19.7172 25.8936C18.156 25.113 17 23.9421 17 22.5001V16.6667H17.5H18V22.5001C18 23.3592 18.7095 24.2717 20.1644 24.9991C21.5894 25.7116 23.593 26.1667 25.8333 26.1667C28.0737 26.1667 30.0773 25.7116 31.5023 24.9991C32.9572 24.2717 33.6667 23.3592 33.6667 22.5001V16.6676L34.1667 16.6667ZM34.1667 16.6667L34.6667 16.6668C34.6667 16.3907 34.4428 16.1667 34.1667 16.1667C33.8905 16.1667 33.6667 16.3914 33.6667 16.6676L34.1667 16.6667Z" fill="#0962E8"/>
<path fill-rule="evenodd" clip-rule="evenodd" d="M17.5 22C17.7761 22 18 22.2239 18 22.5H17.5H17C17 22.2239 17.2239 22 17.5 22ZM34.1667 22.5L34.6667 22.5001V28.3333C34.6667 29.7753 33.5107 30.9462 31.9495 31.7268C30.3584 32.5224 28.1953 33 25.8333 33C23.4714 33 21.3083 32.5224 19.7172 31.7268C18.156 30.9462 17 29.7753 17 28.3333V22.5H17.5H18V28.3333C18 29.1925 18.7095 30.1049 20.1644 30.8324C21.5894 31.5449 23.593 32 25.8333 32C28.0737 32 30.0773 31.5449 31.5023 30.8324C32.9572 30.1049 33.6667 29.1925 33.6667 28.3333V22.5008L34.1667 22.5ZM34.1667 22.5L34.6667 22.5001C34.6667 22.2239 34.4428 22 34.1667 22C33.8905 22 33.6667 22.2247 33.6667 22.5008L34.1667 22.5Z" fill="#0962E8"/>
</svg>
