<svg width="40" height="40" viewBox="0 0 40 40" fill="none" xmlns="http://www.w3.org/2000/svg">
<path fill-rule="evenodd" clip-rule="evenodd" d="M2.71375 8.92892C2.71375 5.49683 5.49597 2.7146 8.92804 2.7146C12.3601 2.7146 15.1423 5.49684 15.1423 8.92892C15.1423 12.361 12.3601 15.1432 8.92804 15.1432C5.49597 15.1432 2.71375 12.361 2.71375 8.92892ZM8.92804 3.7146C6.04826 3.7146 3.71375 6.04911 3.71375 8.92892C3.71375 11.8087 6.04825 14.1432 8.92804 14.1432C11.8078 14.1432 14.1423 11.8087 14.1423 8.92892C14.1423 6.04911 11.8078 3.7146 8.92804 3.7146Z" fill="#0962E8"/>
<path fill-rule="evenodd" clip-rule="evenodd" d="M19.8564 26.0718C19.8564 22.6397 22.6387 19.8574 26.0708 19.8574C29.5028 19.8574 32.285 22.6397 32.285 26.0718C32.285 29.5037 29.5028 32.286 26.0708 32.286C22.6387 32.286 19.8564 29.5037 19.8564 26.0718ZM26.0708 20.8574C23.191 20.8574 20.8564 23.192 20.8564 26.0718C20.8564 28.9514 23.191 31.286 26.0708 31.286C28.9505 31.286 31.285 28.9515 31.285 26.0718C31.285 23.192 28.9505 20.8574 26.0708 20.8574Z" fill="#0962E8"/>
<path fill-rule="evenodd" clip-rule="evenodd" d="M0.570511 17.0747C0.71792 16.9836 0.901992 16.9753 1.05699 17.0528L6.6125 19.8306C6.85949 19.9541 6.9596 20.2545 6.8361 20.5014C6.7126 20.7484 6.41227 20.8485 6.16528 20.725L1.35377 18.3192C1.7804 26.8672 8.84618 33.6667 17.5 33.6667C17.7762 33.6667 18 33.8905 18 34.1667C18 34.4428 17.7762 34.6667 17.5 34.6667C8.01917 34.6667 0.333374 26.9809 0.333374 17.5C0.333374 17.3267 0.423101 17.1658 0.570511 17.0747Z" fill="#0962E8"/>
<path fill-rule="evenodd" clip-rule="evenodd" d="M17 0.833496C17 0.557354 17.2239 0.333496 17.5 0.333496C26.9809 0.333496 34.6667 8.01924 34.6667 17.5002C34.6667 17.6735 34.5769 17.8344 34.4295 17.9255C34.2821 18.0166 34.0981 18.0249 33.9431 17.9474L28.3875 15.1696C28.1405 15.0461 28.0404 14.7458 28.1639 14.4988C28.2874 14.2518 28.5877 14.1517 28.8347 14.2752L33.6463 16.681C33.2197 8.13296 26.1539 1.3335 17.5 1.3335C17.2239 1.3335 17 1.10964 17 0.833496Z" fill="#0962E8"/>
</svg>
