<svg width="40" height="38" viewBox="0 0 40 38" fill="none" xmlns="http://www.w3.org/2000/svg">
<g clip-path="url(#clip0_1_2823)">
<path d="M21.2 37.6C31.583 37.6 40 29.183 40 18.8C40 8.41705 31.583 0 21.2 0C10.8171 0 2.40002 8.41705 2.40002 18.8C2.40002 29.183 10.8171 37.6 21.2 37.6Z" fill="#EFF9FF"/>
<path fill-rule="evenodd" clip-rule="evenodd" d="M12.3 4.80005C12.3 2.31477 14.3148 0.300049 16.8 0.300049C19.2853 0.300049 21.3 2.31477 21.3 4.80005C21.3 7.28531 19.2853 9.30005 16.8 9.30005C14.3148 9.30005 12.3 7.28531 12.3 4.80005ZM16.8 1.30005C14.8671 1.30005 13.3 2.86706 13.3 4.80005C13.3 6.73303 14.8671 8.30005 16.8 8.30005C18.733 8.30005 20.3 6.73303 20.3 4.80005C20.3 2.86706 18.733 1.30005 16.8 1.30005Z" fill="#0962E8"/>
<path fill-rule="evenodd" clip-rule="evenodd" d="M14.362 13.1001H19.2379C19.945 13.1001 20.3387 13.1001 20.6762 13.1333C23.9522 13.456 26.5441 16.0478 26.8667 19.3238C26.9 19.6613 26.9 20.0551 26.9 20.7622V20.8001C26.9 21.0762 26.6761 21.3001 26.4 21.3001H7.19995C6.92381 21.3001 6.69995 21.0762 6.69995 20.8001L6.69995 20.7621C6.69994 20.055 6.69994 19.6613 6.73316 19.3238C7.05582 16.0478 9.64764 13.456 12.9237 13.1333C13.2611 13.1001 13.6549 13.1001 14.362 13.1001ZM13.0217 14.1285C10.2204 14.4044 8.00424 16.6206 7.72834 19.4218C7.7076 19.6326 7.70201 19.8761 7.7005 20.3001H25.8994C25.8979 19.8761 25.8923 19.6326 25.8716 19.4218C25.5957 16.6206 23.3795 14.4044 20.5782 14.1285C20.296 14.1007 19.9548 14.1001 19.2 14.1001H14.4C13.6451 14.1001 13.3039 14.1007 13.0217 14.1285Z" fill="#0962E8"/>
<path fill-rule="evenodd" clip-rule="evenodd" d="M3.62047 18.7568C3.76994 18.989 3.70288 19.2984 3.47069 19.4478C2.00181 20.3934 1.30005 21.4177 1.30005 22.4004C1.30005 23.1023 1.6536 23.8216 2.40096 24.5283C3.14938 25.2361 4.25918 25.8966 5.67203 26.4617C8.49496 27.5909 12.4291 28.3004 16.8 28.3004C21.171 28.3004 25.1051 27.5909 27.9281 26.4617C29.3409 25.8966 30.4507 25.2361 31.1991 24.5283C31.9465 23.8216 32.3 23.1023 32.3 22.4004C32.3 21.4177 31.5983 20.3934 30.1294 19.4478C29.8972 19.2984 29.8302 18.989 29.9796 18.7568C30.1291 18.5246 30.4385 18.4575 30.6707 18.607C32.2446 19.6201 33.3 20.9075 33.3 22.4004C33.3 23.4659 32.7582 24.4303 31.8862 25.2549C31.0154 26.0785 29.782 26.7971 28.2995 27.3902C25.3315 28.5773 21.2657 29.3004 16.8 29.3004C12.3344 29.3004 8.26857 28.5773 5.30064 27.3902C3.81807 26.7971 2.58473 26.0785 1.71385 25.2549C0.841924 24.4303 0.300049 23.4659 0.300049 22.4004C0.300049 20.9075 1.35552 19.6201 2.92941 18.607C3.1616 18.4575 3.471 18.5246 3.62047 18.7568Z" fill="#0962E8"/>
<path fill-rule="evenodd" clip-rule="evenodd" d="M12.4465 24.4465C12.6418 24.2512 12.9583 24.2512 13.1536 24.4465L17.1536 28.4465C17.3489 28.6418 17.3489 28.9583 17.1536 29.1536L13.1536 33.1536C12.9583 33.3489 12.6418 33.3489 12.4465 33.1536C12.2512 32.9583 12.2512 32.6418 12.4465 32.4465L16.0929 28.8L12.4465 25.1536C12.2512 24.9583 12.2512 24.6418 12.4465 24.4465Z" fill="#0962E8"/>
</g>
<defs>
<clipPath id="clip0_1_2823">
<rect width="40" height="37.6" fill="white"/>
</clipPath>
</defs>
</svg>
